<?xml version="1.0" encoding="utf-8"?>
<!-- Generator: Adobe Illustrator 22.0.0, SVG Export Plug-In . SVG Version: 6.00 Build 0)  -->
<svg version="1.1" id="Capa_1" xmlns="http://www.w3.org/2000/svg" xmlns:xlink="http://www.w3.org/1999/xlink" x="0px" y="0px"
	 viewBox="0 0 602.9 166.3" style="enable-background:new 0 0 602.9 166.3;" xml:space="preserve">
<style type="text/css">
	.st0{fill:#FFFFFF;}
</style>
<polygon class="st0" points="54.6,127.5 66.5,127.5 77.6,105.2 88.8,127.5 100.7,127.5 77.6,81.5 "/>
<polygon class="st0" points="42.3,127.5 77.6,56.9 112.9,127.5 124.1,127.5 124.1,39.8 91.7,39.8 97,50.4 113.5,50.4 113.5,105 
	80.9,39.8 74.4,39.8 41.7,105 41.7,50.4 58.3,50.4 63.6,39.8 31.1,39.8 31.1,127.5 "/>
<polygon class="st0" points="193.9,61.9 176.7,61.9 176.7,111.9 162.5,111.9 162.5,61.9 145.3,61.9 145.3,50.7 193.9,50.7 "/>
<path class="st0" d="M204,75c1.3-2.4,2.9-4.2,4.6-5.5c1.7-1.3,3.8-2,6-2c2,0,3.6,0.5,4.8,1.4l-0.8,9.6c-0.1,0.6-0.4,1-0.7,1.3
	c-0.3,0.2-0.8,0.3-1.3,0.3c-0.2,0-0.5,0-0.9,0c-0.4,0-0.7-0.1-1.1-0.1c-0.4,0-0.8-0.1-1.2-0.1c-0.4,0-0.8-0.1-1.1-0.1
	c-1.9,0-3.4,0.5-4.6,1.5c-1.1,1-2.1,2.4-2.9,4.2v26.5h-13V68.3h7.7c0.6,0,1.2,0.1,1.6,0.2c0.4,0.1,0.8,0.3,1.1,0.5
	c0.3,0.2,0.5,0.6,0.7,0.9c0.2,0.4,0.3,0.9,0.4,1.4L204,75z"/>
<path class="st0" d="M222.5,74.4c2.6-2.3,5.6-4.1,8.8-5.2s6.6-1.7,10.3-1.7c2.6,0,5,0.4,7.1,1.3c2.1,0.9,3.9,2,5.4,3.6
	c1.5,1.5,2.6,3.3,3.4,5.4c0.8,2.1,1.2,4.4,1.2,6.9v27.2h-6c-1.2,0-2.2-0.2-2.8-0.5c-0.6-0.3-1.2-1-1.6-2.1l-0.9-2.4
	c-1.1,0.9-2.1,1.7-3.2,2.4c-1,0.7-2.1,1.3-3.1,1.8c-1.1,0.5-2.2,0.9-3.4,1.1c-1.2,0.2-2.6,0.4-4.1,0.4c-2,0-3.8-0.3-5.4-0.8
	c-1.6-0.5-3-1.3-4.1-2.3c-1.1-1-2-2.3-2.6-3.8c-0.6-1.5-0.9-3.2-0.9-5.2c0-1.6,0.4-3.2,1.2-4.8c0.8-1.6,2.1-3.1,4.1-4.4
	c1.9-1.3,4.5-2.4,7.8-3.3c3.3-0.9,7.4-1.4,12.4-1.5v-1.8c0-2.5-0.5-4.4-1.6-5.5c-1.1-1.1-2.5-1.7-4.5-1.7c-1.5,0-2.8,0.2-3.8,0.5
	c-1,0.3-1.9,0.7-2.6,1.1c-0.8,0.4-1.5,0.8-2.2,1.1c-0.7,0.3-1.6,0.5-2.6,0.5c-0.9,0-1.7-0.2-2.3-0.7c-0.6-0.4-1.1-1-1.5-1.6
	L222.5,74.4z M245.9,94.1c-2.6,0.1-4.7,0.3-6.4,0.7c-1.7,0.3-3,0.8-4,1.3s-1.7,1.1-2,1.7c-0.4,0.6-0.6,1.3-0.6,2.1
	c0,1.5,0.4,2.5,1.2,3.1c0.8,0.6,2,0.9,3.6,0.9c1.7,0,3.1-0.3,4.4-0.9c1.3-0.6,2.5-1.5,3.8-2.9V94.1z"/>
<path class="st0" d="M306.3,49v62.9h-8.1c-1.6,0-2.7-0.7-3.2-2.2l-1-3.3c-0.9,0.9-1.8,1.8-2.7,2.5c-1,0.8-2,1.4-3.1,2
	c-1.1,0.5-2.3,1-3.6,1.3c-1.3,0.3-2.7,0.4-4.1,0.4c-2.3,0-4.4-0.5-6.3-1.5c-1.9-1-3.6-2.5-5-4.4c-1.4-1.9-2.5-4.2-3.3-7
	c-0.8-2.8-1.2-5.9-1.2-9.4c0-3.2,0.4-6.3,1.3-9.1c0.9-2.8,2.2-5.2,3.8-7.2s3.6-3.6,5.9-4.8c2.3-1.1,4.8-1.7,7.6-1.7
	c2.3,0,4.2,0.3,5.7,1s2.9,1.5,4.2,2.6V49H306.3z M293.3,80c-1-1.1-2-1.9-3.2-2.3c-1.1-0.4-2.4-0.7-3.6-0.7c-1.2,0-2.3,0.2-3.3,0.7
	c-1,0.5-1.9,1.2-2.6,2.3c-0.7,1-1.3,2.4-1.7,4.1c-0.4,1.7-0.6,3.7-0.6,6.1c0,2.3,0.2,4.2,0.5,5.8c0.3,1.6,0.8,2.8,1.4,3.8
	c0.6,1,1.3,1.7,2.2,2.1c0.8,0.4,1.8,0.6,2.8,0.6c1,0,1.8-0.1,2.6-0.3c0.8-0.2,1.5-0.4,2.1-0.8s1.3-0.8,1.8-1.3s1.1-1.1,1.7-1.8V80z"
	/>
<path class="st0" d="M325.9,92.4c0.4,3.6,1.5,6.3,3.3,7.9c1.8,1.6,4.1,2.5,6.9,2.5c1.5,0,2.8-0.2,3.9-0.5c1.1-0.4,2.1-0.8,2.9-1.2
	c0.9-0.4,1.6-0.9,2.4-1.2c0.7-0.4,1.5-0.5,2.2-0.5c1,0,1.8,0.4,2.4,1.1l3.8,4.7c-1.3,1.5-2.8,2.8-4.3,3.8c-1.6,1-3.2,1.7-4.8,2.3
	c-1.6,0.5-3.3,0.9-4.9,1.1c-1.6,0.2-3.2,0.3-4.7,0.3c-3.1,0-5.9-0.5-8.6-1.5c-2.7-1-5-2.5-7-4.4c-2-2-3.6-4.4-4.7-7.3
	c-1.2-2.9-1.7-6.3-1.7-10.2c0-2.9,0.5-5.7,1.5-8.3c1-2.6,2.4-4.9,4.3-6.8c1.9-2,4.1-3.5,6.8-4.7s5.6-1.7,9-1.7
	c2.9,0,5.5,0.4,7.9,1.3c2.4,0.9,4.5,2.2,6.2,3.9c1.7,1.7,3.1,3.8,4,6.3c1,2.5,1.4,5.3,1.4,8.4c0,1,0,1.8-0.1,2.4
	c-0.1,0.6-0.2,1.1-0.5,1.5c-0.2,0.4-0.5,0.6-0.9,0.8c-0.4,0.1-0.9,0.2-1.5,0.2H325.9z M342.3,84.9c0-1-0.1-2-0.4-3
	c-0.3-1-0.7-1.9-1.3-2.6c-0.6-0.8-1.4-1.4-2.4-1.9c-1-0.5-2.2-0.7-3.6-0.7c-2.5,0-4.4,0.7-5.8,2.1c-1.4,1.4-2.3,3.5-2.8,6.1H342.3z"
	/>
<path class="st0" d="M366.9,77.1c1.9-2.4,4.1-4.2,6.6-5.6c2.5-1.4,5.3-2.1,8.3-2.1c2.3,0,4.3,0.4,6.1,1.1s3.2,1.8,4.3,3.1
	c1.1,1.4,2,3,2.6,5c0.6,1.9,0.9,4.1,0.9,6.6v26.7h-4V85.2c0-3.9-0.9-7-2.7-9.2c-1.8-2.2-4.5-3.3-8.2-3.3c-2.7,0-5.3,0.7-7.6,2.1
	c-2.4,1.4-4.5,3.3-6.3,5.8v31.4h-4V50.8h4V77.1z"/>
<path class="st0" d="M425.7,69.4c3,0,5.7,0.5,8,1.5c2.4,1,4.4,2.5,6,4.3c1.6,1.9,2.9,4.1,3.7,6.8c0.9,2.6,1.3,5.6,1.3,8.9
	c0,3.3-0.4,6.2-1.3,8.9c-0.9,2.6-2.1,4.9-3.7,6.8c-1.6,1.9-3.6,3.3-6,4.3c-2.4,1-5,1.5-8,1.5c-3,0-5.7-0.5-8-1.5
	c-2.4-1-4.4-2.5-6-4.3c-1.6-1.9-2.9-4.1-3.7-6.8c-0.9-2.6-1.3-5.6-1.3-8.9c0-3.3,0.4-6.2,1.3-8.9c0.9-2.6,2.1-4.9,3.7-6.8
	c1.6-1.9,3.6-3.3,6-4.3C420,69.9,422.7,69.4,425.7,69.4 M425.7,109.3c2.5,0,4.7-0.4,6.5-1.3c1.9-0.9,3.4-2.1,4.7-3.7
	c1.2-1.6,2.2-3.5,2.8-5.8c0.6-2.3,0.9-4.8,0.9-7.6c0-2.8-0.3-5.3-0.9-7.6c-0.6-2.3-1.5-4.2-2.8-5.8c-1.2-1.6-2.8-2.8-4.7-3.7
	c-1.9-0.9-4-1.3-6.5-1.3c-2.5,0-4.7,0.4-6.5,1.3c-1.9,0.9-3.4,2.1-4.7,3.7c-1.2,1.6-2.2,3.5-2.8,5.8c-0.6,2.3-0.9,4.8-0.9,7.6
	c0,2.8,0.3,5.3,0.9,7.6c0.6,2.3,1.6,4.2,2.8,5.8c1.2,1.6,2.8,2.8,4.7,3.7C421,108.8,423.2,109.3,425.7,109.3"/>
<path class="st0" d="M488.4,70.1v41.8h-2.2c-0.7,0-1.1-0.4-1.2-1.1l-0.4-6.2c-1.9,2.4-4.2,4.3-6.7,5.8c-2.5,1.5-5.4,2.2-8.5,2.2
	c-2.3,0-4.4-0.4-6.1-1.1c-1.7-0.7-3.2-1.8-4.3-3.2c-1.1-1.4-2-3-2.6-5c-0.6-1.9-0.9-4.1-0.9-6.6V70.1h4v26.7c0,3.9,0.9,7,2.7,9.2
	c1.8,2.2,4.5,3.3,8.2,3.3c2.7,0,5.3-0.7,7.6-2.1c2.4-1.4,4.5-3.3,6.3-5.8V70.1H488.4z"/>
<path class="st0" d="M525.1,75.2c-0.2,0.4-0.5,0.6-1,0.6c-0.3,0-0.7-0.2-1.2-0.5c-0.5-0.4-1.1-0.7-1.9-1.2c-0.8-0.4-1.8-0.8-3-1.2
	c-1.2-0.4-2.6-0.5-4.3-0.5c-1.5,0-2.9,0.2-4.1,0.7c-1.2,0.4-2.3,1-3.2,1.7c-0.9,0.7-1.6,1.6-2,2.5c-0.5,1-0.7,2-0.7,3
	c0,1.3,0.3,2.4,1,3.3s1.5,1.6,2.6,2.2c1.1,0.6,2.3,1.1,3.7,1.6c1.4,0.4,2.8,0.9,4.3,1.3c1.4,0.4,2.9,0.9,4.3,1.5
	c1.4,0.5,2.6,1.2,3.7,2s2,1.8,2.6,3c0.7,1.2,1,2.6,1,4.3c0,1.8-0.3,3.5-1,5.1c-0.6,1.6-1.6,2.9-2.8,4.1c-1.2,1.1-2.8,2.1-4.6,2.7
	c-1.8,0.7-3.9,1-6.3,1c-2.9,0-5.5-0.5-7.6-1.4c-2.1-0.9-4-2.2-5.7-3.7l0.9-1.4c0.1-0.2,0.3-0.4,0.5-0.5c0.2-0.1,0.4-0.2,0.7-0.2
	c0.4,0,0.8,0.2,1.3,0.7c0.5,0.4,1.2,0.9,2.1,1.4c0.9,0.5,1.9,1,3.2,1.4c1.3,0.4,2.8,0.7,4.7,0.7c1.8,0,3.3-0.2,4.7-0.7
	c1.3-0.5,2.5-1.2,3.4-2c0.9-0.8,1.6-1.8,2-3c0.5-1.1,0.7-2.3,0.7-3.6c0-1.4-0.3-2.6-1-3.5c-0.7-0.9-1.6-1.7-2.6-2.4
	c-1.1-0.6-2.3-1.2-3.7-1.6c-1.4-0.4-2.8-0.9-4.3-1.3c-1.5-0.4-2.9-0.9-4.3-1.5c-1.4-0.5-2.6-1.2-3.7-2c-1.1-0.8-2-1.8-2.6-3
	c-0.7-1.2-1-2.6-1-4.3c0-1.5,0.3-2.9,1-4.3c0.6-1.4,1.6-2.6,2.8-3.6c1.2-1,2.6-1.9,4.3-2.5c1.7-0.6,3.6-0.9,5.8-0.9
	c2.5,0,4.8,0.4,6.8,1.1c2,0.7,3.8,1.8,5.4,3.4L525.1,75.2z"/>
<path class="st0" d="M539.3,89.3v0.8c0,3.1,0.4,5.9,1.1,8.3c0.7,2.4,1.8,4.4,3.1,6c1.3,1.6,3,2.8,4.9,3.6c1.9,0.8,4,1.2,6.4,1.2
	c2.1,0,3.9-0.2,5.5-0.7c1.5-0.5,2.8-1,3.9-1.6s1.9-1.1,2.5-1.6c0.6-0.5,1.1-0.7,1.3-0.7c0.4,0,0.6,0.1,0.8,0.4l1.1,1.3
	c-0.7,0.8-1.6,1.6-2.7,2.4c-1.1,0.7-2.3,1.4-3.7,1.9c-1.4,0.5-2.8,0.9-4.4,1.2c-1.6,0.3-3.1,0.5-4.7,0.5c-2.9,0-5.5-0.5-7.8-1.5
	c-2.4-1-4.4-2.4-6-4.3c-1.7-1.9-3-4.2-3.9-7c-0.9-2.8-1.4-5.9-1.4-9.5c0-3,0.4-5.8,1.3-8.3s2.1-4.7,3.7-6.6c1.6-1.8,3.6-3.3,5.9-4.3
	c2.3-1,5-1.6,8-1.6c2.4,0,4.5,0.4,6.6,1.2c2,0.8,3.8,2,5.3,3.5c1.5,1.6,2.7,3.5,3.5,5.7c0.9,2.3,1.3,4.9,1.3,7.8
	c0,0.6-0.1,1-0.3,1.3c-0.2,0.2-0.4,0.3-0.8,0.3H539.3z M567.2,86.7c0-2.2-0.3-4.2-0.9-6c-0.6-1.8-1.5-3.3-2.7-4.5
	c-1.1-1.2-2.5-2.2-4.1-2.8c-1.6-0.7-3.3-1-5.2-1c-2.2,0-4.1,0.3-5.8,1c-1.7,0.7-3.2,1.6-4.4,2.9c-1.2,1.3-2.2,2.8-3,4.5
	c-0.8,1.8-1.3,3.7-1.5,5.9H567.2z"/>
</svg>
